<svg xmlns="http://www.w3.org/2000/svg" width="20.403" height="20.411" viewBox="0 0 20.403 20.411"><path d="M3.084,17.494A10.284,10.284,0,0,1,17.628,2.949Z" transform="translate(-0.075 0.062)" fill="blue"/><g transform="translate(5.06 5.07)"><path d="M84.231,71.045a.567.567,0,0,0-.8-.8l-6.593,6.593-6.593,6.593a.563.563,0,0,0,0,.8.581.581,0,0,0,.4.166.594.594,0,0,0,.4-.166l6.593-6.593Z" transform="translate(-70.075 -70.075)" fill="blue"/><path d="M121.987,110.645a.567.567,0,0,0-.8-.8l-5.667,5.667-5.675,5.675a.563.563,0,0,0,0,.8.581.581,0,0,0,.4.166.594.594,0,0,0,.4-.166l5.667-5.667Z" transform="translate(-106.812 -106.812)" fill="blue"/><path d="M172.03,164.813l-3.643,3.643h0l-3.643,3.643a.563.563,0,0,0,0,.8.581.581,0,0,0,.4.166.594.594,0,0,0,.4-.166l3.643-3.643h0l3.643-3.643a.563.563,0,0,0,0-.8A.585.585,0,0,0,172.03,164.813Z" transform="translate(-157.744 -157.813)" fill="blue"/></g></svg>