<svg xmlns="http://www.w3.org/2000/svg" width="151.966" height="22" viewBox="0 0 151.966 22">
  <g id="Grupo_1950" data-name="Grupo 1950" transform="translate(-49.879 -20.944)">
    <path id="Trazado_1" data-name="Trazado 1" d="M497.614,168.1h2.579a6.266,6.266,0,1,1,0-2.169h-2.579A3.624,3.624,0,0,0,494,163.037a3.984,3.984,0,0,0,0,7.953A3.648,3.648,0,0,0,497.614,168.1Z" transform="translate(-407.639 -135.069)" fill="blue"/>
    <path id="Trazado_2" data-name="Trazado 2" d="M686.27,163.841h8.676a3.415,3.415,0,0,1,3.615,3.615,3.331,3.331,0,0,1-3.157,3.47,3.987,3.987,0,0,1,.434.578l2.723,4.386h-2.723l-3.061-4.941h-4.1v4.941h-2.41Zm8.676,4.94a1.139,1.139,0,0,0,1.205-1.205v-.361a1.139,1.139,0,0,0-1.205-1.205H688.68v2.771Z" transform="translate(-590.704 -137.921)" fill="blue"/>
    <path id="Trazado_3" data-name="Trazado 3" d="M886.6,166.01v2.771h6.989v2.169H886.6v2.771H896v2.169H884.193v-12.05H896v2.169Z" transform="translate(-773.203 -137.921)" fill="blue"/>
    <path id="Trazado_4" data-name="Trazado 4" d="M1074.548,167.014a6.266,6.266,0,1,1-6.266-6.266A6.078,6.078,0,0,1,1074.548,167.014Zm-2.53,0a3.743,3.743,0,1,0-3.735,3.976A3.74,3.74,0,0,0,1072.017,167.014Z" transform="translate(-937.169 -135.069)" fill="blue"/>
    <path id="Trazado_5" data-name="Trazado 5" d="M1327.973,163.841h12.05v2.169h-4.82v9.881h-2.41V166.01h-4.82Z" transform="translate(-1182.4 -137.921)" fill="blue"/>
    <path id="Trazado_6" data-name="Trazado 6" d="M1510.593,167.014a6.266,6.266,0,1,1-6.266-6.266A6.079,6.079,0,0,1,1510.593,167.014Zm-2.531,0a3.743,3.743,0,1,0-3.735,3.976A3.74,3.74,0,0,0,1508.062,167.014Z" transform="translate(-1339.233 -135.069)" fill="blue"/>
    <path id="Trazado_7" data-name="Trazado 7" d="M1706.686,170.107v-6.266h2.41v6.266a5.789,5.789,0,1,1-11.568,0v-6.266h2.41v6.266a3.392,3.392,0,1,0,6.748,0Z" transform="translate(-1523.156 -137.921)" fill="blue"/>
    <path id="Trazado_8" data-name="Trazado 8" d="M1892.355,163.841h8.676a3.415,3.415,0,0,1,3.615,3.615,3.331,3.331,0,0,1-3.157,3.47,4.02,4.02,0,0,1,.434.578l2.723,4.386h-2.723l-3.061-4.941h-4.1v4.941h-2.41Zm8.676,4.94a1.138,1.138,0,0,0,1.205-1.205v-.361a1.138,1.138,0,0,0-1.205-1.205h-6.266v2.771Z" transform="translate(-1702.801 -137.921)" fill="blue"/>
    <path id="Trazado_9" data-name="Trazado 9" d="M103.246,118.923a11.085,11.085,0,0,1,15.676-15.676Z" transform="translate(-50.12 -79.055)" fill="blue"/>
    <path id="Trazado_10" data-name="Trazado 10" d="M261.862,178.385a.613.613,0,0,1-.434-1.047l7.107-7.107a.613.613,0,1,1,.867.868l-7.107,7.107A.612.612,0,0,1,261.862,178.385Z" transform="translate(-198.804 -143.648)" fill="blue"/>
    <path id="Trazado_11" data-name="Trazado 11" d="M288.738,217.02a.613.613,0,0,1-.434-1.047l6.113-6.113a.613.613,0,0,1,.867.868l-6.113,6.113A.612.612,0,0,1,288.738,217.02Z" transform="translate(-223.585 -180.188)" fill="blue"/>
    <path id="Trazado_12" data-name="Trazado 12" d="M315.614,269.771a.613.613,0,0,1-.434-1.047l3.926-3.926a.613.613,0,1,1,.867.867l-3.926,3.926A.612.612,0,0,1,315.614,269.771Z" transform="translate(-248.367 -230.845)" fill="blue"/>
    <path id="Trazado_13" data-name="Trazado 13" d="M170.665,269.581a.613.613,0,0,1-.434-1.047l7.107-7.107a.613.613,0,0,1,.867.868L171.1,269.4A.611.611,0,0,1,170.665,269.581Z" transform="translate(-114.714 -227.737)" fill="blue"/>
    <path id="Trazado_14" data-name="Trazado 14" d="M210.294,295.464a.613.613,0,0,1-.434-1.047l6.113-6.113a.613.613,0,1,1,.867.867l-6.113,6.113A.611.611,0,0,1,210.294,295.464Z" transform="translate(-151.254 -252.519)" fill="blue"/>
    <path id="Trazado_15" data-name="Trazado 15" d="M265.233,320.154a.613.613,0,0,1-.434-1.047l3.926-3.926a.613.613,0,0,1,.868.867l-3.926,3.926A.612.612,0,0,1,265.233,320.154Z" transform="translate(-201.912 -277.301)" fill="blue"/>
  </g>
</svg>
