<svg xmlns="http://www.w3.org/2000/svg" width="50" height="50" viewBox="0 0 50 50"><g transform="translate(-1033 -5470)"><circle cx="25" cy="25" r="25" transform="translate(1033 5470)" fill="#fff"/><g transform="translate(1035.557 5472.557)"><path d="M511.895,319.333a22.562,22.562,0,1,0,22.562,22.562A22.562,22.562,0,0,0,511.895,319.333Zm0,7.913a8.868,8.868,0,0,1,8.861,8.861,8.739,8.739,0,0,1-1.255,4.534l-6.951,11.446a.772.772,0,0,1-1.309,0l-6.951-11.446a8.739,8.739,0,0,1-1.255-4.534A8.868,8.868,0,0,1,511.895,327.246Zm8.054,30.4a28.688,28.688,0,0,1-16.108,0c-3.1-1.065-3.745-2.438-3.745-3.4,0-1.894,2.447-3.4,6.714-4.142a.758.758,0,1,1,.258,1.493c-3.582.62-5.457,1.8-5.457,2.649,0,1.24,4.006,3.041,10.284,3.041s10.284-1.8,10.284-3.041c0-.849-1.88-2.032-5.473-2.651a.758.758,0,0,1,.257-1.493c4.277.737,6.731,2.248,6.731,4.145C523.694,355.209,523.044,356.583,519.949,357.648Z" transform="translate(-489.333 -319.333)" fill="blue"/><circle cx="2.936" cy="2.936" r="2.936" transform="translate(19.626 13.822)" fill="blue"/></g></g></svg>